<svg version="1.1" id="Layer_1" xmlns="http://www.w3.org/2000/svg" xmlns:xlink="http://www.w3.org/1999/xlink" x="0px" y="0px"
	 width="100%" viewBox="0 0 263 277" enable-background="new 0 0 263 277" xml:space="preserve">
<path fill="#FDFDFD" opacity="1.000000" stroke="none" 
	d="
M148.000000,278.000000 
	C98.666664,278.000000 49.833332,278.000000 1.000000,278.000000 
	C1.000000,185.666672 1.000000,93.333336 1.000000,1.000000 
	C88.666664,1.000000 176.333328,1.000000 264.000000,1.000000 
	C264.000000,93.333336 264.000000,185.666672 264.000000,278.000000 
	C225.500000,278.000000 187.000000,278.000000 148.000000,278.000000 
M128.731689,18.629593 
	C128.731689,16.526098 128.731689,14.422604 128.731689,12.334195 
	C122.062164,12.334195 115.994919,12.334195 109.814865,12.334195 
	C109.814865,25.997694 109.818092,39.320789 109.813553,52.643887 
	C109.811195,59.552608 109.454079,59.815010 101.855064,58.115749 
	C101.855064,49.185791 101.855064,40.134575 101.855064,30.978800 
	C70.969696,38.693932 44.603901,75.175507 44.230682,105.487183 
	C103.263680,105.487183 162.293396,105.487183 221.335983,105.487183 
	C220.072693,71.427925 190.284378,36.896656 163.867157,31.582367 
	C163.867157,40.595005 163.867157,49.530144 163.867157,58.390347 
	C156.195129,59.464664 156.189957,59.464664 156.187866,52.339565 
	C156.183990,39.051743 156.186768,25.763918 156.186768,12.258411 
	C149.591675,12.258411 143.355545,12.258411 136.645340,12.258411 
	C136.645340,19.924988 136.645340,27.348223 136.645340,35.063744 
	C133.932373,35.063744 131.691254,35.063744 128.731659,35.063744 
	C128.731659,29.830444 128.731659,24.716030 128.731689,18.629593 
M141.460663,261.887146 
	C143.626617,261.887512 145.816544,261.682861 147.953323,261.932709 
	C151.899094,262.394135 153.248047,260.951233 153.005859,256.918030 
	C152.659073,251.143372 152.917480,245.332367 152.917480,240.573654 
	C161.812454,236.732651 169.803894,233.134308 177.943970,229.911285 
	C179.307846,229.371277 181.902039,229.872498 182.923737,230.895401 
	C187.121017,235.097565 190.930405,239.687180 194.280304,243.456650 
	C204.712402,233.298782 213.939560,224.314194 223.608978,214.898941 
	C219.646774,211.061996 215.733261,207.003052 211.517166,203.287476 
	C208.868912,200.953598 209.039154,199.095856 210.542618,196.043350 
	C213.687607,189.657928 216.522278,183.052887 218.697250,176.285065 
	C219.762833,172.969315 221.215103,172.139404 224.286575,172.216187 
	C230.060883,172.360535 235.841354,172.257767 242.053543,172.257767 
	C242.053543,166.850388 241.801620,162.041931 242.132065,157.273834 
	C242.403809,153.352829 240.802597,152.516647 237.234985,152.553406 
	C222.243240,152.707932 207.248047,152.710281 192.256348,152.553619 
	C188.454025,152.513885 187.044540,153.684006 186.881180,157.637146 
	C186.457626,167.887024 182.754654,177.172958 176.462204,185.152435 
	C160.511047,205.380203 136.984055,211.800659 112.583664,202.973450 
	C94.597496,196.466690 79.977501,176.894379 79.105782,157.761337 
	C78.933731,153.985016 77.848320,152.494171 73.869614,152.543472 
	C58.878590,152.729279 43.883854,152.604828 28.890606,152.638489 
	C27.317825,152.642029 25.745672,152.922989 24.298164,153.063141 
	C24.298164,159.766129 24.298164,165.840973 24.298164,172.256729 
	C30.629524,172.256729 36.624538,172.026566 42.579414,172.413788 
	C44.125187,172.514313 46.219761,174.237000 46.907898,175.742279 
	C50.072178,182.664215 52.677250,189.840927 55.809761,196.778671 
	C56.939854,199.281570 57.009930,200.924271 54.887581,202.845520 
	C51.310684,206.083450 48.050854,209.670563 44.491665,212.929535 
	C42.394356,214.849930 42.405426,216.235809 44.484901,218.191162 
	C48.728241,222.181213 52.856010,226.305054 56.858650,230.537155 
	C61.047794,234.966476 65.034203,239.587524 69.696030,244.778152 
	C74.663292,239.527115 78.517601,235.621048 82.166939,231.532074 
	C84.379646,229.052811 86.163383,228.764130 89.398239,230.358109 
	C96.061775,233.641541 103.201202,235.946869 110.036163,238.905655 
	C111.312744,239.458282 112.863663,241.131760 112.947006,242.377670 
	C113.279839,247.353134 113.272202,252.373642 113.017899,257.358490 
	C112.841919,260.807922 113.911812,262.068146 117.482841,261.959808 
	C125.139069,261.727539 132.807205,261.887634 141.460663,261.887146 
M220.498260,113.532761 
	C158.713562,113.532394 96.928864,113.531769 35.144169,113.533348 
	C33.812405,113.533386 32.462543,113.422646 31.152184,113.596992 
	C26.764118,114.180855 24.297424,116.714439 23.997213,121.160881 
	C23.862864,123.150803 23.930805,125.156364 23.951141,127.154381 
	C24.025196,134.429626 26.584423,136.941406 33.954914,136.943008 
	C63.764816,136.949432 93.574715,136.945786 123.384621,136.945831 
	C159.855957,136.945892 196.327286,136.955490 232.798615,136.936737 
	C239.044571,136.933533 241.888885,134.101471 242.041489,127.851250 
	C242.094299,125.688148 242.157486,123.511528 241.985535,121.359489 
	C241.596741,116.493362 238.833954,113.743904 233.985947,113.557922 
	C229.828766,113.398438 225.660461,113.529724 220.498260,113.532761 
z"/>
<path fill="#0C0C0C" opacity="1.000000" stroke="none" 
	d="
M128.731674,19.115604 
	C128.731659,24.716030 128.731659,29.830444 128.731659,35.063744 
	C131.691254,35.063744 133.932373,35.063744 136.645340,35.063744 
	C136.645340,27.348223 136.645340,19.924988 136.645340,12.258411 
	C143.355545,12.258411 149.591675,12.258411 156.186768,12.258411 
	C156.186768,25.763918 156.183990,39.051743 156.187866,52.339565 
	C156.189957,59.464664 156.195129,59.464664 163.867157,58.390347 
	C163.867157,49.530144 163.867157,40.595005 163.867157,31.582367 
	C190.284378,36.896656 220.072693,71.427925 221.335983,105.487183 
	C162.293396,105.487183 103.263680,105.487183 44.230682,105.487183 
	C44.603901,75.175507 70.969696,38.693932 101.855064,30.978800 
	C101.855064,40.134575 101.855064,49.185791 101.855064,58.115749 
	C109.454079,59.815010 109.811195,59.552608 109.813553,52.643887 
	C109.818092,39.320789 109.814865,25.997694 109.814865,12.334195 
	C115.994919,12.334195 122.062164,12.334195 128.731689,12.334195 
	C128.731689,14.422604 128.731689,16.526098 128.731674,19.115604 
z"/>
<path fill="#0B0B0B" opacity="1.000000" stroke="none" 
	d="
M140.965561,261.887115 
	C132.807205,261.887634 125.139069,261.727539 117.482841,261.959808 
	C113.911812,262.068146 112.841919,260.807922 113.017899,257.358490 
	C113.272202,252.373642 113.279839,247.353134 112.947006,242.377670 
	C112.863663,241.131760 111.312744,239.458282 110.036163,238.905655 
	C103.201202,235.946869 96.061775,233.641541 89.398239,230.358109 
	C86.163383,228.764130 84.379646,229.052811 82.166939,231.532074 
	C78.517601,235.621048 74.663292,239.527115 69.696030,244.778152 
	C65.034203,239.587524 61.047794,234.966476 56.858650,230.537155 
	C52.856010,226.305054 48.728241,222.181213 44.484901,218.191162 
	C42.405426,216.235809 42.394356,214.849930 44.491665,212.929535 
	C48.050854,209.670563 51.310684,206.083450 54.887581,202.845520 
	C57.009930,200.924271 56.939854,199.281570 55.809761,196.778671 
	C52.677250,189.840927 50.072178,182.664215 46.907898,175.742279 
	C46.219761,174.237000 44.125187,172.514313 42.579414,172.413788 
	C36.624538,172.026566 30.629524,172.256729 24.298164,172.256729 
	C24.298164,165.840973 24.298164,159.766129 24.298164,153.063141 
	C25.745672,152.922989 27.317825,152.642029 28.890606,152.638489 
	C43.883854,152.604828 58.878590,152.729279 73.869614,152.543472 
	C77.848320,152.494171 78.933731,153.985016 79.105782,157.761337 
	C79.977501,176.894379 94.597496,196.466690 112.583664,202.973450 
	C136.984055,211.800659 160.511047,205.380203 176.462204,185.152435 
	C182.754654,177.172958 186.457626,167.887024 186.881180,157.637146 
	C187.044540,153.684006 188.454025,152.513885 192.256348,152.553619 
	C207.248047,152.710281 222.243240,152.707932 237.234985,152.553406 
	C240.802597,152.516647 242.403809,153.352829 242.132065,157.273834 
	C241.801620,162.041931 242.053543,166.850388 242.053543,172.257767 
	C235.841354,172.257767 230.060883,172.360535 224.286575,172.216187 
	C221.215103,172.139404 219.762833,172.969315 218.697250,176.285065 
	C216.522278,183.052887 213.687607,189.657928 210.542618,196.043350 
	C209.039154,199.095856 208.868912,200.953598 211.517166,203.287476 
	C215.733261,207.003052 219.646774,211.061996 223.608978,214.898941 
	C213.939560,224.314194 204.712402,233.298782 194.280304,243.456650 
	C190.930405,239.687180 187.121017,235.097565 182.923737,230.895401 
	C181.902039,229.872498 179.307846,229.371277 177.943970,229.911285 
	C169.803894,233.134308 161.812454,236.732651 152.917480,240.573654 
	C152.917480,245.332367 152.659073,251.143372 153.005859,256.918030 
	C153.248047,260.951233 151.899094,262.394135 147.953323,261.932709 
	C145.816544,261.682861 143.626617,261.887512 140.965561,261.887115 
z"/>
<path fill="#0B0B0B" opacity="1.000000" stroke="none" 
	d="
M220.997665,113.532593 
	C225.660461,113.529724 229.828766,113.398438 233.985947,113.557922 
	C238.833954,113.743904 241.596741,116.493362 241.985535,121.359489 
	C242.157486,123.511528 242.094299,125.688148 242.041489,127.851250 
	C241.888885,134.101471 239.044571,136.933533 232.798615,136.936737 
	C196.327286,136.955490 159.855957,136.945892 123.384621,136.945831 
	C93.574715,136.945786 63.764816,136.949432 33.954914,136.943008 
	C26.584423,136.941406 24.025196,134.429626 23.951141,127.154381 
	C23.930805,125.156364 23.862864,123.150803 23.997213,121.160881 
	C24.297424,116.714439 26.764118,114.180855 31.152184,113.596992 
	C32.462543,113.422646 33.812405,113.533386 35.144169,113.533348 
	C96.928864,113.531769 158.713562,113.532394 220.997665,113.532593 
z"/>
</svg>