<?xml version="1.0" standalone="no"?>
<!DOCTYPE svg PUBLIC "-//W3C//DTD SVG 20010904//EN"
 "http://www.w3.org/TR/2001/REC-SVG-20010904/DTD/svg10.dtd">
<svg version="1.0" xmlns="http://www.w3.org/2000/svg"
 width="399.000000pt" height="332.000000pt" viewBox="0 0 399.000000 332.000000"
 preserveAspectRatio="xMidYMid meet">

<g transform="translate(0.000000,332.000000) scale(0.100000,-0.100000)"
fill="#000000" stroke="none">
<path d="M1904 3156 c-29 -13 -92 -49 -699 -401 -159 -92 -333 -193 -385 -223
-133 -77 -146 -87 -169 -135 -21 -43 -21 -54 -21 -752 0 -688 1 -710 20 -750
11 -23 32 -50 47 -62 26 -18 509 -300 1012 -590 191 -109 219 -123 261 -123
51 0 31 -11 800 435 497 288 490 283 517 334 l23 45 -2 721 -3 721 -26 40
c-22 32 -75 67 -310 204 -156 90 -322 187 -369 214 -507 295 -583 336 -624
336 -23 -1 -55 -7 -72 -14z m170 -561 c30 -32 76 -50 76 -30 0 18 20 20 21 3
1 -7 1 -16 1 -19 -1 -4 17 -14 39 -24 53 -24 125 -103 156 -171 14 -30 30 -88
36 -127 6 -40 16 -79 24 -88 27 -32 15 -65 -44 -124 -100 -100 -234 -148 -397
-143 -58 2 -95 7 -94 13 2 6 32 9 73 7 140 -7 313 48 384 122 l35 36 -397 0
c-392 0 -397 0 -385 -20 22 -34 2 -32 -34 4 -45 45 -51 69 -27 100 10 13 19
39 19 58 1 123 92 277 198 332 17 9 34 26 38 38 6 19 8 20 18 6 15 -20 51 -7
78 27 17 22 27 25 89 25 61 0 73 -3 93 -25z m-584 -691 c0 -92 1 -97 29 -125
38 -37 82 -39 116 -4 26 25 29 38 26 115 -2 55 7 110 18 110 20 0 156 -138
172 -175 44 -96 2 -198 -102 -251 -29 -14 -49 -31 -50 -42 0 -9 0 -69 0 -132
0 -173 10 -160 -125 -160 l-114 0 0 149 0 150 -65 43 c-74 48 -105 97 -105
166 0 54 14 87 57 140 34 41 119 111 136 112 4 0 7 -43 7 -96z m1160 -324 l0
-340 -340 0 -340 0 0 63 c0 83 16 105 76 109 46 3 47 3 66 56 l20 53 -31 35
c-17 19 -31 42 -31 50 0 20 50 93 86 124 107 93 121 97 169 50 l30 -29 57 22
c57 22 58 23 58 62 0 22 4 46 9 54 10 15 64 28 129 30 l42 1 0 -340z m-778
-537 l28 -27 0 -145 c0 -144 0 -145 -27 -173 l-27 -28 -153 0 -153 0 0 200 0
200 152 0 c151 0 152 0 180 -27z m274 -65 l46 -91 47 89 48 89 57 3 56 3 0
-201 0 -200 -55 0 -54 0 -3 106 -3 107 -35 -63 c-50 -91 -69 -90 -118 5 l-31
60 -1 -107 0 -108 -55 0 -55 0 0 200 0 200 55 0 55 0 46 -92z"/>
<path d="M1927 2592 c-15 -3 -17 -28 -17 -260 l0 -257 75 -1 75 -1 0 253 c0
179 -3 255 -11 260 -13 7 -94 11 -122 6z"/>
<path d="M1838 2533 c-15 -4 -18 -16 -18 -64 0 -32 -4 -59 -9 -59 -13 0 -17
19 -16 68 l2 42 -26 -17 c-14 -9 -36 -23 -48 -31 -60 -38 -125 -165 -139 -273
l-7 -49 67 0 c52 0 66 -3 66 -15 0 -12 -16 -15 -80 -15 -73 0 -80 -2 -80 -20
0 -11 5 -20 10 -20 6 0 79 -1 163 -1 l152 0 3 230 c2 242 4 236 -40 224z"/>
<path d="M2090 2308 l0 -233 157 2 c87 1 161 2 166 2 4 1 7 10 7 21 0 17 -8
19 -77 22 -50 2 -78 7 -81 16 -3 9 14 12 62 12 76 0 75 -3 51 99 -23 96 -70
177 -130 222 -29 22 -56 39 -62 39 -5 0 -9 -21 -9 -47 1 -28 -4 -48 -11 -50
-10 -4 -13 12 -13 55 0 53 -2 60 -22 66 -13 3 -26 6 -30 6 -5 0 -8 -105 -8
-232z"/>
<path d="M1389 1893 c-58 -58 -68 -75 -74 -114 -5 -32 -2 -57 10 -84 21 -52
38 -69 100 -104 30 -17 55 -39 58 -51 3 -11 5 -77 4 -145 -1 -77 2 -126 8
-128 30 -11 35 6 35 133 0 110 2 129 18 143 24 22 46 22 63 0 10 -12 14 -51
14 -148 0 -131 0 -131 23 -127 21 4 22 7 22 134 0 71 5 138 10 149 6 11 35 33
64 49 62 35 96 88 96 150 0 59 -24 103 -89 161 l-56 50 -5 -85 c-4 -65 -10
-89 -25 -106 -43 -48 -101 -58 -150 -26 -35 23 -47 58 -49 144 0 39 -3 72 -5
72 -3 0 -35 -30 -72 -67z"/>
<path d="M1560 1513 c0 -10 -1 -70 -3 -134 -2 -114 -2 -115 21 -115 22 0 23 1
20 130 -3 115 -5 131 -20 134 -12 2 -18 -3 -18 -15z"/>
<path d="M2513 1883 c-8 -3 -13 -24 -13 -54 0 -38 -4 -51 -17 -56 -10 -3 -44
-17 -76 -31 l-58 -25 -38 37 -37 36 -40 -28 c-44 -32 -116 -108 -133 -140 -10
-19 -7 -27 24 -61 l35 -39 -22 -58 c-26 -71 -38 -83 -83 -78 -42 4 -52 -9 -57
-71 l-3 -50 117 -1 116 -1 6 30 c3 16 6 39 6 51 0 12 15 53 34 91 57 120 170
201 297 212 l59 6 0 118 0 119 -52 -1 c-29 0 -59 -3 -65 -6z"/>
<path d="M2517 1614 c-140 -43 -237 -156 -256 -298 l-7 -52 107 0 108 0 6 32
c11 60 72 114 130 114 l25 0 0 110 0 110 -32 -1 c-18 0 -55 -7 -81 -15z"/>
<path d="M2595 1383 c-53 -10 -106 -70 -93 -105 5 -12 63 -17 121 -9 4 1 7 25
7 55 0 58 -4 65 -35 59z"/>
<path d="M1650 870 l0 -109 33 -6 c18 -4 49 -5 68 -3 l34 4 3 112 3 112 -71 0
-70 0 0 -110z"/>
</g>
</svg>
