<?xml version="1.0" standalone="no"?>
<!DOCTYPE svg PUBLIC "-//W3C//DTD SVG 20010904//EN"
 "http://www.w3.org/TR/2001/REC-SVG-20010904/DTD/svg10.dtd">
<svg version="1.0" xmlns="http://www.w3.org/2000/svg"
 width="540.000000pt" height="226.000000pt" viewBox="0 0 540.000000 226.000000"
 preserveAspectRatio="xMidYMid meet">

<g transform="translate(0.000000,226.000000) scale(0.100000,-0.100000)"
fill="#000000" stroke="none">
<path d="M0 1130 l0 -1130 2700 0 2700 0 0 1130 0 1130 -2700 0 -2700 0 0
-1130z m1065 -180 l-310 -310 -67 67 -68 68 242 242 243 243 -243 243 -242
242 67 68 68 67 310 -310 310 -310 -310 -310z m2121 611 c219 -26 354 -190
354 -431 0 -93 -16 -163 -53 -233 -38 -72 -91 -120 -176 -161 l-66 -31 -257
-3 -258 -3 0 429 c0 236 3 432 7 435 9 10 364 8 449 -2z m673 -9 c5 -9 59
-135 120 -280 61 -144 114 -270 119 -278 7 -12 28 29 82 157 41 96 97 228 125
294 l51 120 112 3 112 3 0 -436 0 -435 -110 0 -110 0 0 192 c0 115 -4 188 -9
183 -5 -6 -45 -91 -89 -190 l-81 -180 -75 0 -76 0 -84 188 c-47 104 -87 191
-90 195 -3 3 -6 -83 -6 -191 l0 -197 -110 0 -110 0 0 428 c0 236 3 432 7 435
3 4 53 7 109 7 88 0 105 -3 113 -18z m-1569 -942 l0 -110 -430 0 -430 0 0 110
0 110 430 0 430 0 0 -110z"/>
<path d="M2954 1337 c-2 -7 -3 -105 -2 -217 l3 -205 112 1 c102 2 117 4 157
28 61 35 88 93 88 185 0 111 -38 178 -119 207 -51 18 -232 19 -239 1z"/>
</g>
</svg>
